# xmcd
#
# Track frame offsets:
#	150
#	9692
#	24759
#	44552
#	60826
#	81071
#	100454
#	118859
#	146706
#	158454
#	180381
#	198304
#	220980
#	236891
#
# Disc length: 3477 seconds
#
# Revision: 0
# Processed by: cddbd v1.5.1PL0 Copyright (c) Steve Scherf et al.
# Submitted via: EasyCDDAExtractor 8.0.2.1
#
DISCID=b70d930e
DTITLE=Various Artist - Walk Witt Me
DYEAR=2003
DGENRE=Hip-Hop
TTITLE0=01 - For You
TTITLE1=02 - OK
TTITLE2=03 - Turn It  Up
TTITLE3=04 - How Many Guns
TTITLE4=05 - In Out (Featuring Styles)
TTITLE5=06 - I Ain't Forget
TTITLE6=07 - Walk Witt Me
TTITLE7=08 - Crazzy
TTITLE8=09 - Ten Hut (Featuring Jadakiss)
TTITLE9=10 - How I Love You (Featuring Styles)
TTITLE10=11 - 3-5-4 (Tarrentino)
TTITLE11=12 - Don't Mean Nuthin'
TTITLE12=13 - D-Block (Featuring Jae Hood)
TTITLE13=14 - Mighty D-Block (Featuring Jadakiss, Styles and Jae Hood)
EXTD=
EXTT0=
EXTT1=
EXTT2=
EXTT3=
EXTT4=
EXTT5=
EXTT6=
EXTT7=
EXTT8=
EXTT9=
EXTT10=
EXTT11=
EXTT12=
EXTT13=
PLAYORDER=
